<svg width="20" height="20" viewBox="0 0 20 20" fill="none" xmlns="http://www.w3.org/2000/svg">
<path d="M9.8 11H13C13.2833 11 13.521 10.904 13.713 10.712C13.905 10.52 14.0007 10.2827 14 10C13.9993 9.71733 13.9033 9.48 13.712 9.288C13.5207 9.096 13.2833 9 13 9H9.8L10.7 8.1C10.8833 7.91667 10.975 7.68333 10.975 7.4C10.975 7.11667 10.8833 6.88333 10.7 6.7C10.5167 6.51667 10.2833 6.425 10 6.425C9.71667 6.425 9.48333 6.51667 9.3 6.7L6.7 9.3C6.5 9.5 6.4 9.73333 6.4 10C6.4 10.2667 6.5 10.5 6.7 10.7L9.3 13.3C9.48333 13.4833 9.71667 13.575 10 13.575C10.2833 13.575 10.5167 13.4833 10.7 13.3C10.8833 13.1167 10.975 12.8833 10.975 12.6C10.975 12.3167 10.8833 12.0833 10.7 11.9L9.8 11ZM10 20C8.61667 20 7.31667 19.7373 6.1 19.212C4.88334 18.6867 3.825 17.9743 2.925 17.075C2.025 16.1757 1.31267 15.1173 0.788001 13.9C0.263335 12.6827 0.000667933 11.3827 1.26582e-06 10C-0.000665401 8.61733 0.262001 7.31733 0.788001 6.1C1.314 4.88267 2.02633 3.82433 2.925 2.925C3.82367 2.02567 4.882 1.31333 6.1 0.788C7.318 0.262667 8.618 0 10 0C11.382 0 12.682 0.262667 13.9 0.788C15.118 1.31333 16.1763 2.02567 17.075 2.925C17.9737 3.82433 18.6863 4.88267 19.213 6.1C19.7397 7.31733 20.002 8.61733 20 10C19.998 11.3827 19.7353 12.6827 19.212 13.9C18.6887 15.1173 17.9763 16.1757 17.075 17.075C16.1737 17.9743 15.1153 18.687 13.9 19.213C12.6847 19.739 11.3847 20.0013 10 20ZM10 18C12.2333 18 14.125 17.225 15.675 15.675C17.225 14.125 18 12.2333 18 10C18 7.76667 17.225 5.875 15.675 4.325C14.125 2.775 12.2333 2 10 2C7.76667 2 5.875 2.775 4.325 4.325C2.775 5.875 2 7.76667 2 10C2 12.2333 2.775 14.125 4.325 15.675C5.875 17.225 7.76667 18 10 18Z" fill="white"/>
</svg>
