<svg width="42" height="42" viewBox="0 0 42 42" fill="none" xmlns="http://www.w3.org/2000/svg">
<path d="M38.4152 26.7383L38.3714 27.0322L38.3259 27.0217C38.0149 28.4759 37.2986 29.8124 36.2598 30.8764C35.2209 31.9404 33.902 32.6886 32.4557 33.0343C31.0094 33.3799 29.4947 33.3091 28.087 32.8298C26.6793 32.3506 25.436 31.4825 24.5011 30.3261C23.5662 29.1697 22.9778 27.7722 22.804 26.2954C22.6302 24.8185 22.8781 23.3226 23.519 21.9808C24.16 20.6389 25.1678 19.506 26.4258 18.713C27.6838 17.9201 29.1406 17.4995 30.6277 17.5C31.0179 17.5 31.3924 17.5595 31.7652 17.6137C31.6444 17.2078 31.5202 16.7948 31.3207 16.4237C31.1212 15.8848 30.8097 15.4175 30.4999 14.9468C30.2409 14.4375 29.7842 14.0928 29.4482 13.657C29.0964 13.2335 28.6169 12.9518 28.2372 12.6C27.8644 12.2325 27.3762 12.0487 26.9877 11.7897C26.5817 11.557 26.2282 11.2997 25.8502 11.1772L24.9069 10.7888L24.0774 10.444L24.9244 7.05075L25.9692 7.30275C26.3034 7.38675 26.7112 7.48475 27.1749 7.602C27.6492 7.6895 28.1549 7.92925 28.7184 8.148C29.2732 8.39825 29.9189 8.5645 30.5174 8.96525C31.1194 9.34675 31.8142 9.66525 32.4267 10.1763C33.0199 10.703 33.7357 11.1598 34.2642 11.8283C34.8417 12.4548 35.4122 13.1127 35.8549 13.8617C36.3677 14.5757 36.7159 15.3598 37.0834 16.135C37.4159 16.9103 37.6837 17.703 37.9024 18.473C38.3172 20.0165 38.5027 21.483 38.5744 22.7378C38.6339 23.9943 38.5989 25.039 38.5254 25.795C38.5009 26.1107 38.4641 26.4254 38.4152 26.7383ZM19.1652 26.7383L19.1214 27.0322L19.0759 27.0217C18.7649 28.4759 18.0486 29.8124 17.0098 30.8764C15.9709 31.9404 14.652 32.6886 13.2057 33.0343C11.7594 33.3799 10.2447 33.3091 8.83701 32.8298C7.4293 32.3506 6.18605 31.4825 5.25111 30.3261C4.31617 29.1697 3.72777 27.7722 3.55397 26.2954C3.38018 24.8185 3.62809 23.3226 4.26904 21.9808C4.90999 20.6389 5.91777 19.506 7.17577 18.713C8.43378 17.9201 9.89059 17.4995 11.3777 17.5C11.7679 17.5 12.1424 17.5595 12.5152 17.6137C12.3944 17.2078 12.2702 16.7948 12.0707 16.4237C11.8712 15.8848 11.5597 15.4175 11.2499 14.9468C10.9909 14.4375 10.5342 14.0928 10.1982 13.657C9.8464 13.2335 9.3669 12.9518 8.98715 12.6C8.6144 12.2325 8.12615 12.0487 7.73765 11.7897C7.33165 11.557 6.97815 11.2997 6.60015 11.1772L5.6569 10.7888C5.13015 10.5735 4.82915 10.4475 4.82915 10.4475L5.67615 7.05425L6.7209 7.30625C7.05515 7.39025 7.4629 7.48825 7.92665 7.6055C8.4009 7.693 8.90665 7.93275 9.47015 8.1515C10.0249 8.40175 10.6707 8.568 11.2692 8.96875C11.8712 9.35025 12.5659 9.66875 13.1784 10.1797C13.7717 10.7065 14.4874 11.1632 15.0159 11.8317C15.5934 12.4583 16.1639 13.1163 16.6067 13.8652C17.1194 14.5793 17.4677 15.3633 17.8352 16.1385C18.1677 16.9137 18.4354 17.7065 18.6542 18.4765C19.0689 20.02 19.2544 21.4865 19.3262 22.7413C19.3857 23.9977 19.3507 25.0425 19.2772 25.7985C19.2504 26.1129 19.2131 26.4264 19.1652 26.7383Z" fill="url(#paint0_linear_340_2462)"/>
<defs>
<linearGradient id="paint0_linear_340_2462" x1="7.5" y1="12.5" x2="34.3536" y2="35.5391" gradientUnits="userSpaceOnUse">
<stop stop-color="#0061EF"/>
<stop offset="1" stop-color="#002964"/>
</linearGradient>
</defs>
</svg>
