<svg width="40" height="40" viewBox="0 0 40 40" fill="none" xmlns="http://www.w3.org/2000/svg">
<rect width="40" height="40" rx="20" fill="url(#paint0_linear_36_64)"/>
<path d="M27.5437 23.3062L24.0436 21.8061C23.8941 21.7424 23.728 21.729 23.5701 21.7679C23.4123 21.8068 23.2714 21.8959 23.1686 22.0218L21.6186 23.9156C19.186 22.7686 17.2283 20.8109 16.0813 18.3783L17.9751 16.8282C18.1013 16.7256 18.1905 16.5847 18.2295 16.4268C18.2684 16.269 18.2548 16.1027 18.1907 15.9532L16.6907 12.4532C16.6204 12.292 16.4961 12.1605 16.3392 12.0812C16.1824 12.0019 16.0027 11.9798 15.8313 12.0188L12.5813 12.7688C12.416 12.807 12.2685 12.9 12.163 13.0328C12.0574 13.1655 12 13.3301 12 13.4997C12 21.5155 18.497 28 26.5003 28C26.6699 28.0001 26.8346 27.9427 26.9674 27.8371C27.1002 27.7315 27.1933 27.5841 27.2315 27.4187L27.9815 24.1687C28.0202 23.9964 27.9977 23.8161 27.9178 23.6587C27.8379 23.5012 27.7056 23.3766 27.5437 23.3062Z" fill="#FEFEFE"/>
<defs>
<linearGradient id="paint0_linear_36_64" x1="39.375" y1="27.5" x2="-0.450564" y2="25.907" gradientUnits="userSpaceOnUse">
<stop stop-color="#0061EF"/>
<stop offset="1" stop-color="#002964"/>
</linearGradient>
</defs>
</svg>
