<svg width="50" height="51" viewBox="0 0 50 51" fill="none" xmlns="http://www.w3.org/2000/svg">
<g id="icon-bar 1">
<path id="Vector" d="M3.125 3.625V45.8125C3.125 46.2269 3.28963 46.6244 3.58265 46.9174C3.87568 47.2104 4.2731 47.375 4.6875 47.375H46.875" stroke="url(#paint0_linear_340_1475)" stroke-linecap="round" stroke-linejoin="round"/>
<path id="Vector_2" d="M15.2344 22.375H11.3281C10.2494 22.375 9.375 23.2495 9.375 24.3281V39.1719C9.375 40.2505 10.2494 41.125 11.3281 41.125H15.2344C16.313 41.125 17.1875 40.2505 17.1875 39.1719V24.3281C17.1875 23.2495 16.313 22.375 15.2344 22.375Z" stroke="url(#paint1_linear_340_1475)" stroke-linecap="round" stroke-linejoin="round"/>
<path id="Vector_3" d="M29.2969 17.6875H25.3906C24.312 17.6875 23.4375 18.562 23.4375 19.6406V39.1719C23.4375 40.2505 24.312 41.125 25.3906 41.125H29.2969C30.3755 41.125 31.25 40.2505 31.25 39.1719V19.6406C31.25 18.562 30.3755 17.6875 29.2969 17.6875Z" stroke="url(#paint2_linear_340_1475)" stroke-linecap="round" stroke-linejoin="round"/>
<path id="Vector_4" d="M43.3242 11.4375H39.418C38.3393 11.4375 37.4648 12.3119 37.4648 13.3906V39.1719C37.4648 40.2505 38.3393 41.125 39.418 41.125H43.3242C44.403 41.125 45.2773 40.2505 45.2773 39.1719V13.3906C45.2773 12.3119 44.403 11.4375 43.3242 11.4375Z" stroke="url(#paint3_linear_340_1475)" stroke-linecap="round" stroke-linejoin="round"/>
</g>
<defs>
<linearGradient id="paint0_linear_340_1475" x1="3.125" y1="19.6406" x2="46.6843" y2="21.383" gradientUnits="userSpaceOnUse">
<stop stop-color="#F68104"/>
<stop offset="1" stop-color="#FCD8B1"/>
</linearGradient>
<linearGradient id="paint1_linear_340_1475" x1="9.375" y1="29.2389" x2="17.1637" y2="29.3686" gradientUnits="userSpaceOnUse">
<stop stop-color="#F68104"/>
<stop offset="1" stop-color="#FCD8B1"/>
</linearGradient>
<linearGradient id="paint2_linear_340_1475" x1="23.4375" y1="26.2672" x2="31.227" y2="26.3711" gradientUnits="userSpaceOnUse">
<stop stop-color="#F68104"/>
<stop offset="1" stop-color="#FCD8B1"/>
</linearGradient>
<linearGradient id="paint3_linear_340_1475" x1="37.4648" y1="22.3053" x2="45.2548" y2="22.3873" gradientUnits="userSpaceOnUse">
<stop stop-color="#F68104"/>
<stop offset="1" stop-color="#FCD8B1"/>
</linearGradient>
</defs>
</svg>
