<svg width="50" height="50" viewBox="0 0 50 50" fill="none" xmlns="http://www.w3.org/2000/svg">
<path d="M39.0625 7.8125H38.7969V10.9375H39.0625C39.4769 10.9375 39.8743 11.1021 40.1674 11.3951C40.4604 11.6882 40.625 12.0856 40.625 12.5V43.75C40.625 44.1644 40.4604 44.5618 40.1674 44.8549C39.8743 45.1479 39.4769 45.3125 39.0625 45.3125H10.9375C10.5231 45.3125 10.1257 45.1479 9.83265 44.8549C9.53962 44.5618 9.375 44.1644 9.375 43.75V12.5C9.375 12.0856 9.53962 11.6882 9.83265 11.3951C10.1257 11.1021 10.5231 10.9375 10.9375 10.9375H11.2031V7.8125H10.9375C9.6943 7.8125 8.50201 8.30636 7.62294 9.18544C6.74386 10.0645 6.25 11.2568 6.25 12.5V43.75C6.25 44.9932 6.74386 46.1855 7.62294 47.0646C8.50201 47.9436 9.6943 48.4375 10.9375 48.4375H39.0625C40.3057 48.4375 41.498 47.9436 42.3771 47.0646C43.2561 46.1855 43.75 44.9932 43.75 43.75V12.5C43.75 11.2568 43.2561 10.0645 42.3771 9.18544C41.498 8.30636 40.3057 7.8125 39.0625 7.8125Z" fill="url(#paint0_linear_454_4444)"/>
<path d="M35.9375 4.6875H31.25V0H18.75V4.6875H14.0625V14.0625H35.9375V4.6875ZM32.8125 10.9375H17.1875V7.8125H21.875V3.125H28.125V7.8125H32.8125V10.9375Z" fill="url(#paint1_linear_454_4444)"/>
<path d="M15.625 20.3125H34.375V23.4375H15.625V20.3125ZM15.625 28.125H34.375V31.25H15.625V28.125ZM15.625 35.9375H34.375V39.0625H15.625V35.9375Z" fill="url(#paint2_linear_454_4444)"/>
<defs>
<linearGradient id="paint0_linear_454_4444" x1="6.25" y1="22.6841" x2="43.5953" y2="24.063" gradientUnits="userSpaceOnUse">
<stop stop-color="#F68104"/>
<stop offset="1" stop-color="#FCD8B1"/>
</linearGradient>
<linearGradient id="paint1_linear_454_4444" x1="14.0625" y1="5.14788" x2="35.7928" y2="6.49998" gradientUnits="userSpaceOnUse">
<stop stop-color="#F68104"/>
<stop offset="1" stop-color="#FCD8B1"/>
</linearGradient>
<linearGradient id="paint2_linear_454_4444" x1="15.625" y1="27.1763" x2="34.2932" y2="27.9231" gradientUnits="userSpaceOnUse">
<stop stop-color="#F68104"/>
<stop offset="1" stop-color="#FCD8B1"/>
</linearGradient>
</defs>
</svg>
