<svg width="50" height="51" viewBox="0 0 50 51" fill="none" xmlns="http://www.w3.org/2000/svg">
<path d="M21.3396 34.4879L12.5 25.6462L15.4458 22.7004L21.3396 28.5921L33.1229 16.8066L36.0708 19.7546L21.3396 34.4879Z" fill="url(#paint0_linear_275_9188)"/>
<path fill-rule="evenodd" clip-rule="evenodd" d="M2.08398 25.5002C2.08398 12.8439 12.3444 2.5835 25.0007 2.5835C37.6569 2.5835 47.9173 12.8439 47.9173 25.5002C47.9173 38.1564 37.6569 48.4168 25.0007 48.4168C12.3444 48.4168 2.08398 38.1564 2.08398 25.5002ZM25.0007 44.2502C22.5384 44.2502 20.1002 43.7652 17.8253 42.8229C15.5505 41.8806 13.4835 40.4995 11.7424 38.7584C10.0013 37.0173 8.62018 34.9503 7.67791 32.6755C6.73563 30.4006 6.25065 27.9624 6.25065 25.5002C6.25065 23.0379 6.73563 20.5997 7.67791 18.3248C8.62018 16.05 10.0013 13.983 11.7424 12.2419C13.4835 10.5008 15.5505 9.1197 17.8253 8.17742C20.1002 7.23515 22.5384 6.75016 25.0007 6.75016C29.9735 6.75016 34.7426 8.7256 38.2589 12.2419C41.7752 15.7582 43.7506 20.5274 43.7506 25.5002C43.7506 30.473 41.7752 35.2421 38.2589 38.7584C34.7426 42.2747 29.9735 44.2502 25.0007 44.2502Z" fill="url(#paint1_linear_275_9188)"/>
<defs>
<linearGradient id="paint0_linear_275_9188" x1="12.5" y1="23.2792" x2="35.9389" y2="24.5291" gradientUnits="userSpaceOnUse">
<stop stop-color="#F68104"/>
<stop offset="1" stop-color="#FCD8B1"/>
</linearGradient>
<linearGradient id="paint1_linear_275_9188" x1="2.08399" y1="19.3618" x2="47.7174" y2="21.1871" gradientUnits="userSpaceOnUse">
<stop stop-color="#F68104"/>
<stop offset="1" stop-color="#FCD8B1"/>
</linearGradient>
</defs>
</svg>
