<svg width="50" height="50" viewBox="0 0 50 50" fill="none" xmlns="http://www.w3.org/2000/svg">
<g id="planning">
<path id="Vector" d="M46.7188 25.625L37.3438 44.375C37.0312 44.8438 36.5625 45.3125 35.9375 45.3125H15.625C14.6875 45.3125 14.0625 44.6875 14.0625 43.75C14.0625 42.8125 14.6875 42.1875 15.625 42.1875H35L43.5938 25L35 7.8125H15.625C14.6875 7.8125 14.0625 7.1875 14.0625 6.25C14.0625 5.3125 14.6875 4.6875 15.625 4.6875H35.9375C36.5625 4.6875 37.0312 5 37.3438 5.625L46.7188 24.375C46.875 24.8438 46.875 25.3125 46.7188 25.7812V25.625ZM15.625 34.375C15.625 35.3125 16.25 35.9375 17.1875 35.9375H34.375V32.8125H17.1875C16.25 32.8125 15.625 33.4375 15.625 34.375ZM28.125 23.4375H10.9375C10 23.4375 9.375 24.0625 9.375 25C9.375 25.9375 10 26.5625 10.9375 26.5625H28.125V23.4375ZM34.375 17.1875V14.0625H17.1875C16.25 14.0625 15.625 14.6875 15.625 15.625C15.625 16.5625 16.25 17.1875 17.1875 17.1875H34.375ZM4.6875 23.4375C3.75 23.4375 3.125 24.0625 3.125 25C3.125 25.9375 3.75 26.5625 4.6875 26.5625C5.625 26.5625 6.25 25.9375 6.25 25C6.25 24.0625 5.625 23.4375 4.6875 23.4375ZM9.375 32.8125C8.4375 32.8125 7.8125 33.4375 7.8125 34.375C7.8125 35.3125 8.4375 35.9375 9.375 35.9375C10.3125 35.9375 10.9375 35.3125 10.9375 34.375C10.9375 33.4375 10.3125 32.8125 9.375 32.8125ZM9.375 17.1875C10.3125 17.1875 10.9375 16.5625 10.9375 15.625C10.9375 14.6875 10.3125 14.0625 9.375 14.0625C8.4375 14.0625 7.8125 14.6875 7.8125 15.625C7.8125 16.5625 8.4375 17.1875 9.375 17.1875Z" fill="url(#paint0_linear_454_3950)"/>
</g>
<defs>
<linearGradient id="paint0_linear_454_3950" x1="3.125" y1="19.5591" x2="46.6344" y2="21.4317" gradientUnits="userSpaceOnUse">
<stop stop-color="#F68104"/>
<stop offset="1" stop-color="#FCD8B1"/>
</linearGradient>
</defs>
</svg>
