<svg width="50" height="50" viewBox="0 0 50 50" fill="none" xmlns="http://www.w3.org/2000/svg">
<path d="M25.0003 4.16699C25.7823 4.16699 26.5531 4.20935 27.3128 4.29408C27.5848 4.32417 27.8481 4.40753 28.0879 4.53941C28.3276 4.67128 28.539 4.84908 28.71 5.06265C28.881 5.27623 29.0083 5.5214 29.0846 5.78416C29.1608 6.04692 29.1846 6.32213 29.1545 6.59408C29.1244 6.86602 29.041 7.12938 28.9092 7.3691C28.7773 7.60883 28.5995 7.82024 28.3859 7.99125C28.1723 8.16227 27.9272 8.28954 27.6644 8.36581C27.4017 8.44207 27.1264 8.46584 26.8545 8.43574C23.4213 8.05167 19.9535 8.74395 16.9309 10.4168C13.9083 12.0897 11.4802 14.6605 9.98255 17.7737C8.48486 20.8868 7.99158 24.3884 8.57093 27.7941C9.15029 31.1999 10.7736 34.3414 13.2164 36.7842C15.6593 39.227 18.8008 40.8504 22.2065 41.4297C25.6123 42.0091 29.1139 41.5158 32.227 40.0181C35.3401 38.5204 37.9109 36.0924 39.5838 33.0698C41.2567 30.0472 41.949 26.5794 41.5649 23.1462C41.5348 22.8742 41.5586 22.599 41.6348 22.3362C41.7111 22.0735 41.8384 21.8283 42.0094 21.6147C42.3548 21.1834 42.8574 20.9069 43.4066 20.8462C43.9558 20.7854 44.5067 20.9453 44.938 21.2906C45.1516 21.4617 45.3294 21.6731 45.4612 21.9128C45.5931 22.1525 45.6765 22.4159 45.7066 22.6878C45.7899 23.4475 45.8323 24.2184 45.8337 25.0003C45.8337 36.5066 36.5066 45.8337 25.0003 45.8337C13.4941 45.8337 4.16699 36.5066 4.16699 25.0003C4.16699 13.4941 13.4941 4.16699 25.0003 4.16699ZM24.9337 16.4107C25.071 16.9456 24.9903 17.5131 24.7094 17.9885C24.4286 18.4639 23.9704 18.8083 23.4357 18.9462C21.9667 19.331 20.6879 20.2371 19.8379 21.4956C18.9879 22.754 18.6248 24.2787 18.8164 25.7851C19.0079 27.2916 19.7411 28.6769 20.8789 29.6825C22.0168 30.6881 23.4818 31.2454 25.0003 31.2503C26.3864 31.2509 27.7333 30.7907 28.8292 29.9422C29.9252 29.0936 30.708 27.9049 31.0545 26.5628C31.2022 26.0386 31.5493 25.593 32.0215 25.3215C32.4937 25.0501 33.0534 24.9743 33.5808 25.1105C34.1081 25.2467 34.5612 25.584 34.8429 26.0502C35.1246 26.5163 35.2125 27.0743 35.0878 27.6045C34.4487 30.0543 32.9396 32.1877 30.8423 33.6061C28.7451 35.0245 26.2032 35.6308 23.6915 35.3118C21.1798 34.9928 18.8702 33.7703 17.1941 31.8727C15.518 29.9751 14.5901 27.5322 14.5837 25.0003C14.5833 22.6907 15.3505 20.4465 16.7647 18.6205C18.1789 16.7945 20.1599 15.4902 22.3962 14.9128C22.6611 14.8445 22.937 14.8291 23.2079 14.8674C23.4788 14.9057 23.7396 14.9971 23.9752 15.1362C24.2108 15.2753 24.4168 15.4594 24.5812 15.6781C24.7457 15.8968 24.8654 16.1458 24.9337 16.4107ZM38.5503 4.43158C38.9306 4.58924 39.2556 4.85603 39.4844 5.19826C39.7132 5.5405 39.8354 5.94283 39.8357 6.35449V10.167H43.6462C44.0581 10.1671 44.4608 10.2893 44.8034 10.5182C45.1459 10.7472 45.4128 11.0725 45.5705 11.4531C45.7281 11.8338 45.7694 12.2526 45.689 12.6566C45.6087 13.0607 45.4103 13.4319 45.1191 13.7232L37.7503 21.0837C37.3597 21.4744 36.8299 21.694 36.2774 21.6941H31.2503L27.442 25.5045C27.0511 25.8954 26.5209 26.115 25.968 26.115C25.4152 26.115 24.885 25.8954 24.4941 25.5045C24.1032 25.1136 23.8835 24.5834 23.8835 24.0305C23.8835 23.4777 24.1032 22.9475 24.4941 22.5566L28.3045 18.7503V13.7212C28.3046 13.1687 28.5242 12.6389 28.9149 12.2482L36.2795 4.88158C36.5708 4.59005 36.9421 4.39149 37.3463 4.31102C37.7505 4.23054 38.1695 4.27177 38.5503 4.42949M35.6691 11.3816L32.4712 14.5837V17.5295H35.417L38.617 14.3316H37.7524C37.1999 14.3316 36.67 14.1121 36.2793 13.7214C35.8886 13.3307 35.6691 12.8008 35.6691 12.2482V11.3816Z" fill="url(#paint0_linear_454_3832)"/>
<defs>
<linearGradient id="paint0_linear_454_3832" x1="4.16699" y1="19.42" x2="45.652" y2="21.0794" gradientUnits="userSpaceOnUse">
<stop stop-color="#F68104"/>
<stop offset="1" stop-color="#FCD8B1"/>
</linearGradient>
</defs>
</svg>
