<svg width="42" height="42" viewBox="0 0 42 42" fill="none" xmlns="http://www.w3.org/2000/svg">
<path d="M3.58485 26.7383L3.6286 27.0322L3.6741 27.0217C3.98506 28.4759 4.7014 29.8124 5.74025 30.8764C6.77909 31.9404 8.09798 32.6886 9.5443 33.0343C10.9906 33.3799 12.5053 33.3091 13.913 32.8298C15.3207 32.3506 16.564 31.4825 17.4989 30.3261C18.4338 29.1697 19.0222 27.7722 19.196 26.2954C19.3698 24.8185 19.1219 23.3226 18.481 21.9808C17.84 20.6389 16.8322 19.506 15.5742 18.713C14.3162 17.9201 12.8594 17.4995 11.3723 17.5C10.9821 17.5 10.6076 17.5595 10.2348 17.6137C10.3556 17.2078 10.4798 16.7948 10.6793 16.4237C10.8788 15.8848 11.1903 15.4175 11.5001 14.9468C11.7591 14.4375 12.2158 14.0928 12.5518 13.657C12.9036 13.2335 13.3831 12.9518 13.7628 12.6C14.1356 12.2325 14.6238 12.0487 15.0123 11.7897C15.4183 11.557 15.7718 11.2997 16.1498 11.1772L17.0931 10.7888L17.9226 10.444L17.0756 7.05075L16.0308 7.30275C15.6966 7.38675 15.2888 7.48475 14.8251 7.602C14.3508 7.6895 13.8451 7.92925 13.2816 8.148C12.7268 8.39825 12.0811 8.5645 11.4826 8.96525C10.8806 9.34675 10.1858 9.66525 9.57335 10.1763C8.9801 10.703 8.26435 11.1598 7.73585 11.8283C7.15835 12.4548 6.58785 13.1127 6.1451 13.8617C5.63235 14.5757 5.2841 15.3598 4.9166 16.135C4.5841 16.9103 4.31635 17.703 4.0976 18.473C3.68285 20.0165 3.49734 21.483 3.42559 22.7378C3.3661 23.9943 3.4011 25.039 3.47459 25.795C3.49914 26.1107 3.53592 26.4254 3.58485 26.7383ZM22.8348 26.7383L22.8786 27.0322L22.9241 27.0217C23.2351 28.4759 23.9514 29.8124 24.9902 30.8764C26.0291 31.9404 27.348 32.6886 28.7943 33.0343C30.2406 33.3799 31.7553 33.3091 33.163 32.8298C34.5707 32.3506 35.814 31.4825 36.7489 30.3261C37.6838 29.1697 38.2722 27.7722 38.446 26.2954C38.6198 24.8185 38.3719 23.3226 37.731 21.9808C37.09 20.6389 36.0822 19.506 34.8242 18.713C33.5662 17.9201 32.1094 17.4995 30.6223 17.5C30.2321 17.5 29.8576 17.5595 29.4848 17.6137C29.6056 17.2078 29.7298 16.7948 29.9293 16.4237C30.1288 15.8848 30.4403 15.4175 30.7501 14.9468C31.0091 14.4375 31.4658 14.0928 31.8018 13.657C32.1536 13.2335 32.6331 12.9518 33.0128 12.6C33.3856 12.2325 33.8738 12.0487 34.2623 11.7897C34.6683 11.557 35.0218 11.2997 35.3998 11.1772L36.3431 10.7888C36.8698 10.5735 37.1708 10.4475 37.1708 10.4475L36.3238 7.05425L35.2791 7.30625C34.9448 7.39025 34.5371 7.48825 34.0733 7.6055C33.5991 7.693 33.0933 7.93275 32.5298 8.1515C31.9751 8.40175 31.3293 8.568 30.7308 8.96875C30.1288 9.35025 29.4341 9.66875 28.8216 10.1797C28.2283 10.7065 27.5126 11.1632 26.9841 11.8317C26.4066 12.4583 25.8361 13.1163 25.3933 13.8652C24.8806 14.5793 24.5323 15.3633 24.1648 16.1385C23.8323 16.9137 23.5646 17.7065 23.3458 18.4765C22.9311 20.02 22.7456 21.4865 22.6738 22.7413C22.6143 23.9977 22.6493 25.0425 22.7228 25.7985C22.7496 26.1129 22.7869 26.4264 22.8348 26.7383Z" fill="url(#paint0_linear_340_2464)"/>
<defs>
<linearGradient id="paint0_linear_340_2464" x1="34.5" y1="12.5" x2="7.64635" y2="35.5391" gradientUnits="userSpaceOnUse">
<stop stop-color="#0061EF"/>
<stop offset="1" stop-color="#002964"/>
</linearGradient>
</defs>
</svg>
