<svg width="80" height="27" viewBox="0 0 80 27" fill="none" xmlns="http://www.w3.org/2000/svg">
<g clip-path="url(#clip0_185_3812)">
<path fill-rule="evenodd" clip-rule="evenodd" d="M69.2759 2.10574L67.7376 8.22376L65.7997 8.24352L67.2781 2.12556L65.0605 2.16513L65.52 0.482208L73.9308 0.501968L74.4103 5.76863L77.2472 0.501968H79.3249L74.7499 8.22376L72.9919 8.24352L71.8931 0.719762L72.1156 2.08593L69.2759 2.10574Z" fill="#A6AAAB"/>
<path fill-rule="evenodd" clip-rule="evenodd" d="M0.795673 11.4322L1.75464 6.79918L4.43169 6.85857C5.24405 1.81631 8.61368 -0.117476 14.3607 0.641413L13.4817 5.25473L11.3241 5.21503C10.2563 5.25548 9.68523 5.83404 9.52609 6.85846L12.323 6.84022L11.444 11.4138L8.58711 11.4535L5.69029 26.0655L0.675781 26.0837L3.53264 11.4123L0.795673 11.4322ZM13.9653 6.64025H19.2395L17.2217 16.9359C16.8222 19.1139 16.4026 21.5294 19.0198 21.9848C19.7461 22.0883 20.4927 21.9857 21.1993 21.6579C23.3295 20.6686 23.8482 18.5755 24.2789 16.4747L26.2918 6.66016L31.3462 6.64192L27.4705 25.9464L22.8356 26.0058L23.0354 25.0555C19.9527 27.0698 16.2041 26.8002 13.9674 25.3364C11.7951 23.8185 11.2999 21.1601 11.8446 17.7944L13.9653 6.64025ZM29.1849 26.0066L34.1395 25.9885L34.4392 24.4243C37.4825 27.6847 44.4415 26.6089 46.8656 24.4641C45.5301 23.1078 44.964 21.4975 44.7479 19.7715C43.0231 22.0024 39.6401 22.2729 37.8954 20.9398C36.2572 19.7855 35.8325 17.4855 36.2588 15.4922C36.6438 13.6918 37.8366 12.0977 39.5792 11.4047C41.6413 10.5847 44.1136 11.1092 45.3272 12.7032C47.3702 15.9968 45.7277 18.7371 47.1566 21.6872C48.007 23.4431 49.6851 24.9341 51.4697 25.6961C53.6176 26.6132 56.2415 26.7895 58.6701 26.0897C61.5223 25.2679 63.8668 23.2338 65.1601 20.5953C66.6985 17.4574 66.8067 13.5837 65.1922 10.6716C62.5196 5.85119 55.252 4.67377 50.7614 8.08983C51.8918 9.47744 52.4012 11.0648 52.7593 12.7427C54.6238 10.3008 58.2265 10.5912 59.9114 12.0696C61.3569 13.3314 61.7598 16.2809 60.6756 18.6023C59.8348 20.4023 58.3012 21.3764 56.3629 21.6735C52.95 22.1969 51.1267 19.4744 50.9612 16.6433C50.9226 13.8176 50.6931 11.7826 49.6403 10.1375C48.9165 9.00597 47.745 7.97468 46.5457 7.36393C43.9492 6.04145 40.2979 5.94526 37.7757 7.49594L39.1142 0.684898L34.1397 0.666659L29.1849 26.0066Z" fill="black"/>
</g>
<defs>
<clipPath id="clip0_185_3812">
<rect width="80" height="27" fill="white"/>
</clipPath>
</defs>
</svg>
