<svg width="90" height="70" viewBox="0 0 90 70" fill="none" xmlns="http://www.w3.org/2000/svg">
<rect width="90" height="70" fill="white"/>
<path d="M62.1075 42.7316C58.6507 42.7316 56.0753 39.7063 56.0753 35.9844C56.0753 32.2729 58.6507 29.4867 62.1075 29.4867C65.5642 29.4867 68.1397 32.2625 68.1397 35.974C68.1397 39.6959 65.5642 42.7316 62.1075 42.7316ZM62.1075 28.6134C58.1709 28.6134 55.0863 31.7635 55.0863 35.9636C55.0863 40.2261 58.1024 43.5634 62.1075 43.5634C66.1126 43.5634 69.1287 40.2261 69.1287 35.9636C69.1287 31.7011 66.1126 28.6134 62.1075 28.6134ZM86.011 28.8837L82.1919 41.6296L78.5099 29.0084L78.4707 28.8837H77.7853L74.1425 41.6296L70.3136 28.998L70.2842 28.8837H69.2756L73.5941 43.3034H74.6615L78.1378 31.1709L81.6141 43.3034H82.6619L87 28.8837H86.011ZM52.2562 41.6296L43.4332 28.8941H42.1406V43.3138H43.0905V30.1416L52.1779 43.3138H53.2061V28.8941H52.2562V41.6296ZM13.7326 43.9376H9.72744V37.8557H7.12264V43.9376H3.00979L3 28.2703H7.13243V34.0923H9.73724V28.2703H13.7424V43.9376H13.7326ZM32.0935 44C36.2259 44 39.5848 40.3509 39.5848 35.9636C39.5848 31.4828 36.2259 28 32.0935 28C27.9709 28 25.8557 31.2229 25.3367 32.5224C25.3367 30.5679 23.5251 28.2599 21.4001 28.2599H14.5649V43.9168H20.9398C23.5153 43.9168 25.3367 41.5569 25.3465 39.5296C25.934 40.8083 27.9709 44 32.0935 44ZM20.4111 37.6374C20.9986 37.6374 21.4686 38.2508 21.4686 38.9578C21.4686 39.6647 21.0084 40.2781 20.4111 40.2781H18.384V37.627L20.4111 37.6374ZM20.4208 31.7531C21.0084 31.7531 21.4784 32.3665 21.4784 33.0734C21.4784 33.7804 21.0182 34.3938 20.4208 34.3938H18.3938V31.7427H20.4208V31.7531ZM23.1138 35.974C23.574 35.9116 24.3574 35.3502 24.6218 34.9864C24.5239 35.4334 24.5141 36.7225 24.6316 37.1696C24.328 36.6706 23.5838 36.0364 23.1138 35.974ZM28.343 35.974C28.343 33.77 30.0273 31.9922 32.0935 31.9922C34.1695 31.9922 35.844 33.7804 35.844 35.974C35.844 38.178 34.1597 39.9558 32.0935 39.9558C30.0273 39.9662 28.343 38.178 28.343 35.974ZM32.0935 39.1137C33.719 39.1137 35.041 37.7102 35.041 35.9844C35.041 34.2586 33.719 32.8551 32.0935 32.8551C30.4679 32.8551 29.146 34.2586 29.146 35.9844C29.146 37.7102 30.4679 39.1137 32.0935 39.1137Z" fill="black"/>
</svg>
