<svg width="82" height="22" viewBox="0 0 82 22" fill="none" xmlns="http://www.w3.org/2000/svg">
<g clip-path="url(#clip0_185_3837)">
<path d="M57.2998 3.5022C53.1407 3.5022 49.7695 6.85944 49.7695 11.0002C49.7695 15.1412 53.1407 18.4981 57.2998 18.4981C61.4575 18.4981 64.8278 15.1412 64.8278 11.0002C64.8278 6.85985 61.4572 3.5022 57.2998 3.5022ZM57.2998 14.4437C55.3892 14.4437 53.8415 12.9015 53.8415 11.0002C53.8415 9.09841 55.3892 7.55666 57.2998 7.55666C59.2086 7.55666 60.7572 9.09882 60.7572 11.0002C60.7572 12.9015 59.2086 14.4437 57.2998 14.4437Z" fill="black"/>
<path d="M48.7376 7.64942V3.78645H45.2298V0L41.0081 1.69871V3.78604H38.4111V7.64909H41.0085V12.6333C41.0085 14.3579 41.5216 15.7783 42.4913 16.7414C43.4631 17.7046 44.8983 18.2136 46.6414 18.2136H48.738V14.351H47.2976C45.8679 14.351 45.2307 13.7151 45.2307 12.2922V7.64942H48.7376Z" fill="black"/>
<path d="M32.5648 5.476V11.8032C32.5648 13.2612 31.3773 14.4437 29.9129 14.4437C28.4485 14.4437 27.261 13.2612 27.261 11.8032V3.94543L23.0684 5.63246V11.6821C23.0684 15.447 26.1329 18.4984 29.9129 18.4984C33.6932 18.4984 36.7578 15.447 36.7578 11.6821V3.78897L32.5648 5.476Z" fill="black"/>
<path d="M17.0312 1.69912V18.2144H21.2529V0.000488281L17.0312 1.69912Z" fill="black"/>
<path d="M8.36916 3.50391C6.60485 3.50391 5.10942 4.09791 3.99684 5.2303L3.41366 3.82516L0 5.19869V22H4.2212V17.0388C5.31901 18.0249 6.74097 18.497 8.36966 18.497C10.2984 18.497 12.0781 17.7166 13.3821 16.3C14.6642 14.9057 15.3704 13.0286 15.3704 11.0147C15.3699 6.80276 12.2946 3.50391 8.36916 3.50391ZM7.72391 14.4437C5.78395 14.4437 4.21086 12.9015 4.21086 11.0002C4.21086 9.09841 5.78354 7.55665 7.72391 7.55665C9.66452 7.55665 11.2371 9.09882 11.2371 11.0002C11.2371 12.9015 9.66386 14.4437 7.72391 14.4437Z" fill="black"/>
<path d="M74.4702 3.5022C70.3125 3.5022 66.9414 6.85944 66.9414 11.0002C66.9414 15.1412 70.3125 18.4981 74.4702 18.4981C78.6289 18.4981 82 15.1412 82 11.0002C82 6.85985 78.628 3.5022 74.4702 3.5022ZM77.4436 14.6619H76.04L74.0305 9.8225H72.0159V12.3196C72.0159 12.8574 72.2764 13.1914 72.8913 13.1914H73.7818V14.662H72.6866C71.2002 14.662 70.4048 13.8256 70.4048 12.4262V9.8225H69.293V8.41524H70.4048V7.4153L72.0164 6.76659V8.41524H75.1879L76.7425 12.4581L78.311 8.37735H80.0531L77.4436 14.6619Z" fill="black"/>
</g>
<defs>
<clipPath id="clip0_185_3837">
<rect width="82" height="22" fill="white"/>
</clipPath>
</defs>
</svg>
